<?xml version="1.0" encoding="UTF-8"?>
<!DOCTYPE svg PUBLIC "-//W3C//DTD SVG 1.0//EN" "http://www.w3.org/TR/2001/REC-SVG-20010904/DTD/svg10.dtd">
<!-- Creator: CorelDRAW X7 -->
<svg xmlns="http://www.w3.org/2000/svg" xml:space="preserve" width="5.2788in" height="5.11226in" version="1.0" style="shape-rendering:geometricPrecision; text-rendering:geometricPrecision; image-rendering:optimizeQuality; fill-rule:evenodd; clip-rule:evenodd"
viewBox="0 0 4968 4812"
 xmlns:xlink="http://www.w3.org/1999/xlink">
 <defs>
  <style type="text/css">
   <![CDATA[
    .str0 {stroke:#ABC2B3;stroke-width:2.82356}
    .fil17 {fill:none}
    .fil10 {fill:none}
    .fil0 {fill:#96989A}
    .fil1 {fill:#606062}
    .fil22 {fill:#4B4B4D}
    .fil19 {fill:#373435}
    .fil24 {fill:#847059}
    .fil30 {fill:#BC9D6A}
    .fil20 {fill:#D2AE6D}
    .fil27 {fill:#AE8C60}
    .fil21 {fill:#8C6D52}
    .fil26 {fill:#727F79}
    .fil18 {fill:#CCE7D4}
    .fil25 {fill:#ABC2B3}
    .fil15 {fill:#585570}
    .fil28 {fill:#52658C}
    .fil31 {fill:#373334}
    .fil34 {fill:#727375}
    .fil32 {fill:#A8ABAE}
    .fil33 {fill:#D1D3D5}
    .fil16 {fill:#373435;fill-opacity:0.329412}
    .fil23 {fill:#ABC2B3;fill-opacity:0.380392}
    .fil11 {fill:#FEFEFE}
    .fil6 {fill:#A9ABAE}
    .fil9 {fill:#96989A}
    .fil7 {fill:#606062}
    .fil2 {fill:#373435}
    .fil12 {fill:#FAA954}
    .fil3 {fill:#F5874F}
    .fil14 {fill:#91D8F7}
    .fil5 {fill:#00AFEF}
    .fil8 {fill:#201E1E}
    .fil4 {fill:#FFDD20}
    .fil29 {fill:url(#id3)}
    .fil13 {fill:url(#id4)}
   ]]>
  </style>
   <clipPath id="id0">
    <path d="M2414 1463l139 -1c75,0 118,66 125,139l-63 0c-25,-41 -71,-68 -122,-68l-61 0c-52,0 -97,27 -123,68l-79 6c5,-44 49,-85 84,-108 23,-15 71,-36 100,-36z"/>
   </clipPath>
   <clipPath id="id1">
    <path d="M2524 0c227,0 421,193 492,461 95,355 -95,900 -492,918 -299,15 -522,-308 -522,-689 0,-97 14,-188 41,-271 80,-247 265,-419 481,-419z"/>
   </clipPath>
   <clipPath id="id2">
    <path d="M2142 1700l277 -127 68 0 31 29 46 -29 63 0 293 29 -78 1320 -577 16 -123 -1238z"/>
   </clipPath>
  <radialGradient id="id3" gradientUnits="userSpaceOnUse" gradientTransform="matrix(0.330308 1.23116 -1.05873 0.284076 2243 -2135)" cx="2168.33" cy="746.94" r="1022.82" fx="2168.33" fy="746.94">
   <stop offset="0" style="stop-opacity:1; stop-color:#91D8F7"/>
   <stop offset="1" style="stop-opacity:1; stop-color:#00AFEF"/>
  </radialGradient>
  <radialGradient id="id4" gradientUnits="userSpaceOnUse" gradientTransform="matrix(1.63648 1.11103 -0.876551 2.07424 1900 -2577)" cx="131.114" cy="2262.99" r="65.835" fx="131.114" fy="2262.99">
   <stop offset="0" style="stop-opacity:1; stop-color:#FFF212"/>
   <stop offset="1" style="stop-opacity:1; stop-color:#F58634"/>
  </radialGradient>
 </defs>
 <g id="Layer_x0020_1">
  <metadata id="CorelCorpID_0Corel-Layer"/>
  <ellipse class="fil0" cx="3373" cy="4789" rx="213" ry="23"/>
  <g id="_340716541760">
   <ellipse class="fil1" cx="2507" cy="3245" rx="1697" ry="72"/>
   <path class="fil2" d="M381 2664l127 68 1022 208 177 -187 -33 -561 -1313 13c0,0 23,450 20,459z"/>
   <polygon class="fil2" points="4417,2843 3382,2918 3288,2808 3348,2222 4351,2248 "/>
   <path class="fil3" d="M4448 691c-1223,-94 -2397,-63 -3571,-10l-723 1006 -1 982 622 12 97 -312c29,-32 62,-50 94,-76 138,0 263,-25 365,6 53,17 101,39 142,106l68 289 25 1 1895 34 17 1 91 -260c46,-74 102,-109 164,-138l387 0c52,26 83,37 119,88l86 299 8 26 19 0 476 9 17 -1043 -397 -1020z"/>
   <path class="fil4" d="M1559 2664l-61 -267c-44,-72 -96,-96 -154,-114 -109,-34 -242,-11 -390,-11 -35,28 -73,50 -104,85l-92 292 -580 -12 -5 -939 717 -986 693 -32c161,-5 323,-10 484,-15l1152 -11 630 25 586 36 389 998 -21 1015 -458 -9 -92 -315c-38,-38 -81,-79 -124,-89l-401 -1c-75,26 -138,68 -174,150l-84 238 -1911 -38z"/>
   <polygon class="fil3" points="4094,817 3173,803 3185,1357 4268,1379 "/>
   <polygon class="fil5" points="4080,838 3196,822 3205,1333 4240,1353 "/>
   <path class="fil6" d="M4444 880l-144 3 164 537 176 4c0,0 -193,-546 -196,-544z"/>
   <path class="fil3" d="M1610 851l-707 8 -385 559 1070 -11c0,0 25,-556 22,-556z"/>
   <path class="fil5" d="M1592 876l-685 10 -346 507 1008 -21c0,0 23,-496 23,-496z"/>
   <polygon class="fil3" points="4968,2562 4682,2562 4682,2742 4968,2742 "/>
   <polygon class="fil7" points="4952,2581 4698,2581 4698,2723 4952,2723 "/>
   <polygon class="fil3" points="3095,789 1762,789 1762,2586 3095,2586 "/>
   <polygon class="fil4" points="3074,817 1782,817 1782,2559 3074,2559 "/>
   <polygon class="fil2" points="4719,1597 3153,1597 3153,1623 4719,1623 "/>
   <polygon class="fil2" points="4719,1674 3153,1674 3153,1699 4719,1699 "/>
   <polygon class="fil8" points="3031,1597 1827,1597 1827,1623 3031,1623 "/>
   <polygon class="fil8" points="3031,1674 1827,1674 1827,1699 3031,1699 "/>
   <path class="fil3" d="M1678 791l-779 10 -547 767 -4 581 1311 -36 19 -1322zm-21 21l-748 19 -538 744 -2 553 1270 -35 18 -1281z"/>
   <polygon class="fil8" points="1604,1597 400,1597 400,1623 1604,1623 "/>
   <polygon class="fil8" points="1604,1674 400,1674 400,1699 1604,1699 "/>
   <polygon class="fil8" points="2047,1741 1843,1741 1843,1788 2047,1788 "/>
   <polygon class="fil8" points="1597,1741 1393,1741 1393,1788 1597,1788 "/>
   <path class="fil9" d="M1578 2172c-40,0 -73,41 -73,92 0,51 33,93 73,93 40,0 73,-42 73,-93 0,-51 -33,-92 -73,-92z"/>
   <path class="fil7" d="M3906 2409c-191,0 -345,196 -345,437 0,242 154,437 345,437 190,0 345,-195 345,-437 0,-241 -155,-437 -345,-437z"/>
   <path class="fil10" d="M3906 2415c-188,0 -340,193 -340,431 0,238 152,431 340,431 188,0 340,-193 340,-431 0,-238 -152,-431 -340,-431z"/>
   <path class="fil6" d="M3906 2441c-177,0 -320,181 -320,405 0,224 143,406 320,406 176,0 320,-182 320,-406 0,-224 -144,-405 -320,-405z"/>
   <path class="fil7" d="M3906 2566c-122,0 -221,125 -221,280 0,155 99,280 221,280 122,0 221,-125 221,-280 0,-155 -99,-280 -221,-280z"/>
   <path class="fil11" d="M3906 2592c-111,0 -201,114 -201,254 0,141 90,255 201,255 111,0 201,-114 201,-255 0,-140 -90,-254 -201,-254z"/>
   <path class="fil7" d="M3906 2659c-82,0 -148,84 -148,187 0,103 66,187 148,187 81,0 147,-84 147,-187 0,-103 -66,-187 -147,-187z"/>
   <path class="fil11" d="M3906 2683c-71,0 -129,73 -129,163 0,90 58,164 129,164 71,0 129,-74 129,-164 0,-90 -58,-163 -129,-163z"/>
   <polygon class="fil3" points="2975,861 1858,861 1858,1404 2975,1404 "/>
   <polygon class="fil5" points="2962,882 1876,882 1876,1383 2959,1377 "/>
   <polygon class="fil12" points="237,2210 86,2210 86,2363 237,2363 "/>
   <polygon class="fil13" points="227,2225 96,2226 96,2347 227,2346 "/>
   <polygon class="fil12" points="286,2490 0,2490 0,2670 286,2670 "/>
   <polygon class="fil7" points="270,2509 16,2509 16,2651 270,2651 "/>
   <path class="fil14" d="M1389 876l-477 3 -351 514c199,-57 761,-517 828,-517z"/>
   <path class="fil7" d="M826 1141l-136 141 7 70 38 20 -11 151 39 8 14 -136 61 33c0,0 -9,-284 -12,-287z"/>
   <polygon class="fil14" points="2768,876 2290,879 1940,1393 2215,1374 "/>
   <polygon class="fil14" points="3667,839 3400,829 3236,1335 3492,1337 "/>
   <path class="fil7" d="M1155 2409c-191,0 -345,196 -345,437 0,242 154,437 345,437 190,0 344,-195 344,-437 0,-241 -154,-437 -344,-437z"/>
   <path class="fil10" d="M1155 2415c-188,0 -340,193 -340,431 0,238 152,431 340,431 187,0 340,-193 340,-431 0,-238 -153,-431 -340,-431z"/>
   <path class="fil6" d="M1155 2441c-177,0 -320,181 -320,405 0,224 143,406 320,406 176,0 319,-182 319,-406 0,-224 -143,-405 -319,-405z"/>
   <path class="fil7" d="M1155 2566c-122,0 -221,125 -221,280 0,155 99,280 221,280 122,0 221,-125 221,-280 0,-155 -99,-280 -221,-280z"/>
   <path class="fil11" d="M1155 2592c-111,0 -201,114 -201,254 0,141 90,255 201,255 111,0 201,-114 201,-255 0,-140 -90,-254 -201,-254z"/>
   <path class="fil7" d="M1155 2659c-82,0 -148,84 -148,187 0,103 66,187 148,187 81,0 147,-84 147,-187 0,-103 -66,-187 -147,-187z"/>
   <path class="fil11" d="M1155 2683c-72,0 -129,73 -129,163 0,90 57,164 129,164 71,0 129,-74 129,-164 0,-90 -58,-163 -129,-163z"/>
  </g>
  <path class="fil15" d="M2414 1463l139 -1c75,0 118,66 125,139l-63 0c-25,-41 -71,-68 -122,-68l-61 0c-52,0 -97,27 -123,68l-79 6c5,-44 49,-85 84,-108 23,-15 71,-36 100,-36z"/>
  <g style="clip-path:url(#id0)">
   <g id="_340723131872">
    <path id="1" class="fil16" d="M2426 1490l139 -1c74,0 136,57 144,130l-63 0c-26,-41 -71,-68 -123,-68l-61 0c-51,0 -97,27 -122,68l-79 6c5,-44 48,-85 84,-108 23,-15 52,-27 81,-27z"/>
   </g>
  </g>
  <path class="fil17" d="M2414 1463l139 -1c75,0 118,66 125,139l-63 0c-25,-41 -71,-68 -122,-68l-61 0c-52,0 -97,27 -123,68l-79 6c5,-44 49,-85 84,-108 23,-15 71,-36 100,-36z"/>
  <path class="fil15" d="M2362 1581l383 0 0 1185 -538 0c-119,0 -217,-98 -217,-217l0 -596c0,-204 167,-372 372,-372z"/>
  <ellipse class="fil0" cx="2545" cy="4725" rx="524" ry="72"/>
  <path class="fil18" d="M2918 1601l372 69 11 132 -392 9c0,0 6,-206 9,-210z"/>
  <path class="fil18" d="M3274 1125l122 673 -160 2 -66 -678c0,0 96,-1 104,3z"/>
  <polygon class="fil19" points="2676,1521 2634,1508 2636,1554 "/>
  <polygon class="fil19" points="2387,1521 2429,1508 2427,1554 "/>
  <path class="fil18" d="M2143 1692l-172 800 139 -93 75 -350c0,0 -45,-353 -42,-357z"/>
  <polygon class="fil20" points="2390,1256 2670,1264 2655,1589 2411,1589 "/>
  <ellipse class="fil21" transform="matrix(0.739086 -0.151561 0.108951 1.02814 2534.86 1349.49)" rx="184" ry="63"/>
  <ellipse class="fil20" transform="matrix(-0.825191 0.182272 0.182272 0.825191 1991.24 782.946)" rx="64" ry="186"/>
  <ellipse class="fil21" transform="matrix(0.825191 0.182272 -0.182272 0.825191 3049.67 782.946)" rx="64" ry="186"/>
  <path class="fil20" d="M2524 0c227,0 421,193 492,461 95,355 -95,900 -492,918 -299,15 -522,-308 -522,-689 0,-97 14,-188 41,-271 80,-247 265,-419 481,-419z"/>
  <g style="clip-path:url(#id1)">
   <g id="_340530239552">
    <ellipse class="fil22" cx="2499" cy="226" rx="551" ry="251"/>
    <ellipse class="fil22" cx="3008" cy="491" rx="99" ry="251"/>
    <ellipse class="fil22" cx="2014" cy="491" rx="99" ry="251"/>
   </g>
  </g>
  <path class="fil17" d="M2524 0c227,0 421,193 492,461 95,355 -95,900 -492,918 -299,15 -522,-308 -522,-689 0,-97 14,-188 41,-271 80,-247 265,-419 481,-419z"/>
  <path class="fil22" d="M2176 733c60,-40 150,-85 248,-93l-2 56c-43,-17 -249,26 -246,37z"/>
  <path class="fil22" d="M2857 733c-61,-40 -150,-85 -249,-93l3 56c42,-17 249,26 246,37z"/>
  <path class="fil21" d="M2626 935c-110,46 -90,47 -211,37 172,112 219,-35 211,-37z"/>
  <path class="fil21" d="M2411 1161c117,-32 172,-33 288,-19 -54,-27 -66,-39 -89,-41 -10,-1 -22,2 -38,2 -7,1 -14,0 -21,0 -42,-5 -147,45 -140,58z"/>
  <polygon class="fil18" points="2142,1700 2419,1573 2487,1573 2518,1602 2564,1573 2627,1573 2920,1602 2842,2922 2265,2938 "/>
  <g style="clip-path:url(#id2)">
   <g id="_340489087840">
    <path id="1" class="fil23" d="M2899 1804c-83,462 -48,535 -479,730l371 -97c63,196 -5,354 -77,541l193 -50 66 -1074 -74 -50z"/>
   </g>
  </g>
  <polygon class="fil17 str0" points="2142,1700 2419,1573 2487,1573 2518,1602 2564,1573 2627,1573 2920,1602 2842,2922 2265,2938 "/>
  <polygon class="fil24" points="2232,1619 2341,1579 2417,2141 2358,2151 "/>
  <polygon class="fil24" points="2221,2619 2238,2683 2423,2269 2373,2278 "/>
  <path class="fil25" d="M1971 2484l322 -280 44 110 -231 240c-87,47 -131,22 -135,-70z"/>
  <path class="fil20" d="M2290 2126l128 -50 29 192 -90 30c0,0 -65,-174 -67,-172z"/>
  <path class="fil25" d="M2387 1520l-20 79 51 109 108 -124c0,0 -138,-63 -139,-64z"/>
  <polygon class="fil20" points="2415,2070 2459,2059 2468,2160 2432,2165 "/>
  <path class="fil25" d="M2676 1520l21 79 -52 109 -108 -124c0,0 138,-63 139,-64z"/>
  <rect class="fil25" x="2514" y="1579" width="27.057" height="1338.76"/>
  <circle class="fil26" cx="2526" cy="1602" r="12"/>
  <polygon class="fil27" points="2291,2127 2295,2207 2338,2315 2371,2292 "/>
  <path class="fil28" d="M2263 2910l462 0 119 -2 -91 1678 -89 5 -42 -1409c-49,-34 -103,-28 -157,20l-64 1384 -88 5 -50 -1681z"/>
  <path class="fil29" d="M2219 755c0,37 -24,68 -54,68 -30,0 -54,-31 -54,-68 0,-41 48,-83 54,-122 6,39 54,81 54,122z"/>
  <circle class="fil22" cx="2331" cy="809" r="48"/>
  <circle class="fil22" cx="2683" cy="809" r="48"/>
  <circle class="fil1" cx="2346" cy="797" r="26"/>
  <circle class="fil1" cx="2700" cy="797" r="26"/>
  <path class="fil30" d="M3070 972l-58 22 46 51 42 -17 -14 -24 -24 2 23 -15c0,0 -14,-15 -15,-19z"/>
  <path class="fil27" d="M3129 806l-96 70 -23 120 61 -22c0,0 59,-167 58,-168z"/>
  <path class="fil20" d="M3257 1127l-87 21 -105 -163 45 -142 17 -100 -56 11 -8 62 -29 8 3 -111 111 -26c54,150 66,286 109,440z"/>
  <path class="fil22" d="M2663 4584c-4,60 4,116 26,146 62,84 189,43 115,-81 -11,-20 -28,-42 -52,-66 0,0 -85,1 -89,1z"/>
  <path class="fil22" d="M2397 4584c4,60 -4,116 -26,146 -62,84 -189,43 -115,-81 11,-20 28,-42 52,-66 0,0 85,1 89,1z"/>
  <g id="_340719280144">
   <rect class="fil22" x="3483" y="4726" width="48.4704" height="63.4397"/>
   <g>
    <path class="fil19" d="M3263 4799c34,0 62,-27 62,-61 0,-34 -28,-62 -62,-62 -34,0 -62,28 -62,62 0,34 28,61 62,61z"/>
    <path class="fil31" d="M3263 4797c33,0 60,-26 60,-59 0,-33 -27,-60 -60,-60 -33,0 -60,27 -60,60 0,33 27,59 60,59z"/>
    <path class="fil32" d="M3263 4776c21,0 38,-17 38,-38 0,-21 -17,-38 -38,-38 -21,0 -38,17 -38,38 0,21 17,38 38,38z"/>
    <path class="fil33" d="M3263 4770c18,0 32,-15 32,-32 0,-18 -14,-32 -32,-32 -18,0 -32,14 -32,32 0,17 14,32 32,32z"/>
    <path class="fil34" d="M3263 4747c5,0 9,-4 9,-9 0,-5 -4,-9 -9,-9 -5,0 -9,4 -9,9 0,5 4,9 9,9z"/>
   </g>
   <path class="fil24" d="M3305 3649l138 0c83,0 151,68 151,151l0 872c0,41 -33,74 -74,74l-291 0c-41,0 -75,-33 -75,-74l0 -872c0,-83 68,-151 151,-151z"/>
   <rect class="fil0" x="3347" y="3498" width="66.7584" height="150.522"/>
   <path class="fil22" d="M3288 3712l102 0 -150 970c-30,0 -54,-30 -54,-67l0 -777c0,-69 46,-126 102,-126z"/>
  </g>
 </g>
</svg>
